Patient4_TMGait_0pt6_02_left_15_EMG.mot
version=1
nRows=40
nColumns=33
inDegrees=no
endheader
time	1LAddLong	2LGlutMax	3LGlutMed	4LIliopsoas	5LSemiMemb	6LBicFemLong	7LRecFem	8LVastMed	9LVastLat	10LGasMed	11LTibAnt	12lTibPost	13LPeroneusLong	14LSol	15LExtDigLong	16LFlexDigLong	17RAddLong	18RGlutMax	19RGlutMed	20RIliopsoas	21RSemiMemb	22RBicFemLong	23RRecFem	24RVastMed	25RVastLat	26RGasMed	27RTibAnt	28RTibPost	29RPeroneusLong	30RSol	31RExtDigLong	32RFlexDigLong
19.708	0.016022	-0.093079	-0.081482	0.003357	0.015411	0.034637	0.02655	0.004425	0.048065	-0.015564	0.005341	0.00351	0.062561	-0.14481	-0.041046	-0.007019	-0.016327	-0.33508	-0.85129	0.15335	0.16525	0.36606	0.015411	-0.052338	0.1033	-0.011292	-0.27039	-0.02121	0.89294	-0.14755	-0.003052	-0.009918
19.709	0.014343	-0.10239	-0.11398	-0.005188	0.015259	0.068054	0.000458	0.005646	0.050049	-0.032349	0.046082	0.001984	0.059814	-0.093689	-0.015717	-0.011139	-0.032349	-0.242	-0.64865	0.12848	0.013123	0.078888	-0.14252	-0.067444	0.084229	-0.009918	-0.078278	-0.042267	0.10666	0.1033	-0.003357	-0.011597
19.71	0.013123	-0.079803	-0.12985	0.005951	-0.006866	0.052338	0.010071	0.010681	0.048218	-0.050659	0.074615	0.000458	0.13168	-0.077209	-0.001678	-0.006409	-0.023499	-0.17227	0.25421	0.007019	0.097504	0.013733	-0.11993	-0.02533	0.09552	0.008698	0.045624	0.000458	0.13428	-0.055695	-0.003662	-0.019684
19.711	0.009766	-0.11627	-0.07843	-0.00946	-0.007935	0.050964	0.000305	0.006714	0.042267	-0.046539	0.06546	0.00885	0.11917	-0.090027	0.036011	-0.007782	-0.004425	-0.16419	0.85129	-0.042267	0.14114	0.00946	0.045166	-0.025024	0.027313	0.025635	0.051727	0.03418	0.30792	-0.21439	-0.001678	-0.006714
19.712	0.005188	-0.16205	0.044708	0.012512	-0.015717	0.034332	0.01709	0.007935	0.036774	-0.020905	0.018005	0.009308	0.1265	-0.12543	0.045929	-0.00473	0.007324	-0.2446	0.18494	-0.009918	0.073547	0.075684	0.04837	0.03891	0.062103	0.055695	0.067139	-0.028076	-0.37201	-0.21576	-0.00351	-0.017548
19.713	0.008392	-0.22079	0.097961	0.002594	-0.0383	0.0354	0.011444	0.006409	0.04715	-0.025635	-0.044098	0.010986	0.10147	-0.067444	0.066833	-0.005035	0.014648	-0.2829	-0.12024	0.012817	-0.004883	0.065002	0.082855	-0.047455	0.027924	0.13382	0.084839	-0.020905	-0.73318	-0.09964	-0.001831	-0.013428
19.714	0.016174	-0.23941	0.047455	0.001373	-0.048218	0.041351	-0.004425	-0.00061	0.050201	-0.011749	-0.056458	0.008392	-0.089874	-0.016479	0.068665	-0.000305	0.048981	-0.25696	-0.045471	0.009308	-0.024261	-0.069275	0.12604	-0.1268	-0.051117	0.064392	0.007324	0.04776	0.46417	0.018616	-0.002136	-0.009918
19.715	0.019836	-0.27069	0.024567	0.002441	-0.045166	0.022583	0.006866	0.005646	0.044556	-0.050354	-0.052032	0.012817	-0.09201	-0.018768	0.033112	0.005188	0.045319	-0.21713	0.15106	0.020294	-0.044861	-0.19134	0.14435	-0.059814	-0.055695	0.035553	-0.011597	-0.041046	1.4433	0.025177	-0.006104	-0.007935
19.716	0.015411	-0.30121	0.044556	0.016327	-0.00946	-0.002747	0.011139	0.007019	0.055084	-0.062866	-0.063629	0.00351	0.010986	-0.018005	-0.03067	0.001373	-0.003204	-0.24994	0.27206	-0.021057	-0.27481	-0.068665	0.023193	0.074921	-0.000458	0.025177	0.063019	-0.31738	0.1355	-0.038605	-0.003204	-0.00946
19.717	0.023804	-0.31158	0.02243	0.010681	0.040436	-0.000916	-0.001068	0.007935	0.066681	-0.065918	-0.088196	0.009155	0.085144	-0.00946	-0.10086	0.001678	-0.079651	-0.28686	0.18936	-0.008545	-0.41077	0.15991	0.019379	0.17777	-0.054016	0.014343	0.090942	0.062866	-1.2227	-0.06958	-0.003357	-0.005646
19.718	0.019073	-0.31357	0.022736	0.009155	0.026855	-0.00351	-0.000458	0.009308	0.05188	-0.06012	-0.11154	0.010223	0.083466	0.005188	-0.10727	-0.012512	-0.076599	-0.29495	0.026855	-0.010986	-0.24445	0.31311	-0.023804	0.13138	0.05249	-0.054321	0.063782	0.25162	-0.67291	0.04425	-0.003815	-0.003662
19.719	0.007935	-0.3183	0.027008	0.007172	0.000916	0.011749	0.012817	0.001068	0.053711	-0.039673	-0.045929	0.01297	0.044098	-0.009308	-0.090179	0.003967	-0.065765	-0.28442	0.071106	0.009155	0.21545	0.24246	-0.019073	-0.013123	0.082855	-0.1207	0.023804	0.04715	0.27023	0.19928	-0.002441	-0.010376
19.72	0.002136	-0.34241	-0.034637	0.005188	0.005341	0.026245	0.015106	0.012817	0.046844	-0.024567	-0.00824	0.00885	0.013123	-0.011749	-0.062103	0.006561	-0.059052	-0.24612	0.27268	0.02243	0.29083	0.17044	-0.18723	-0.064697	0.082703	-0.12375	0.017853	-0.012512	0.074158	0.23727	-0.000305	-0.011444
19.721	0.007019	-0.36392	-0.042877	0.011902	0.007324	0.040588	0.00412	0.014191	0.042267	-0.001526	0.1593	0.011444	-0.013428	-0.022583	0.078125	0.012512	-0.027466	-0.24719	-0.004425	0.041046	0.22964	0.13168	-0.15289	-0.068817	0.08728	-0.11276	0.063019	-0.044098	-0.2977	0.19516	0.003204	-0.00061
19.722	0.009918	-0.3865	-0.058594	0.025635	0.000153	0.033264	0.016785	0.012054	0.040283	-0.008698	0.2887	0.014801	-0.021667	-0.049133	0.11948	0.005646	-0.022736	-0.22369	0.04837	-0.018158	0.14328	0.069427	-0.075989	0.011444	0.073853	-0.11673	0.060577	-0.050964	-0.16037	0.18387	-0.007935	0.001678
19.723	0.016174	-0.37949	-0.061493	0.009918	-0.023651	-0.03006	0.008545	0.007477	0.041046	-0.036926	0.22415	0.009308	0.005646	-0.044403	0.041504	-0.008087	-0.011292	-0.22324	0.26566	-0.030823	0.07431	0.071106	-0.065918	-0.027924	0.074768	0.13382	-0.012665	0.015717	0.080261	-0.006561	-0.001373	-0.007782
19.724	0.015106	-0.41031	-0.049133	0.011902	-0.043945	-0.07431	0.000763	0.005646	0.040436	-0.047302	0.026093	0.017548	0.041199	-0.047607	0.064392	-0.006409	-0.00473	-0.14832	0.07019	0.031281	0.058136	0.074615	-0.12695	0.058441	0.17731	0.20096	0.097351	0.02533	-0.39383	-0.37827	-0.002594	-0.011597
19.725	0.024109	-0.40894	-0.037079	-0.013733	0.009613	-0.047913	-0.007935	0.003815	0.040436	-0.056305	-0.086365	0.015259	0.039215	-0.058441	-0.13626	0.002747	-0.009613	-0.20401	-0.47913	0.063019	0.038757	0.058136	-0.0354	0.14908	0.19287	0.10925	0.062408	0.010376	-0.08606	-0.5571	-0.001678	-0.007172
19.726	0.025177	-0.42038	-0.041351	-0.007019	0.018768	0.017242	-0.011292	0.003204	0.041351	-0.052643	-0.10712	0.020294	0.028229	-0.065918	-0.17532	0.002747	-0.00946	-0.24002	-0.97183	-0.000763	0.027313	0.063324	0.009155	0.12863	0.13611	0.089264	-0.11627	0.011902	0.13962	-0.24765	-0.006866	-0.006409
19.727	0.019073	-0.39215	-0.020752	-0.0177	-0.028992	0.02655	0.007172	0.000763	0.028076	-0.046234	-0.040588	0.00946	0.012817	-0.12726	-0.11459	-0.002289	-0.01236	-0.16266	-0.056305	-0.052948	0.03952	0.088654	0.016327	0.13702	0.11337	0.045624	-0.20813	0.028839	0.027466	0.62653	-0.002899	-0.005341
19.728	0.020599	-0.40024	-0.031586	0.002289	-0.084686	-0.001373	0.011139	0.003052	0.023499	-0.030518	-0.016479	0.007477	-0.005188	-0.15869	-0.079041	0.002899	-0.015259	-0.14908	0.80551	-0.18463	0.037231	0.068817	0.046844	0.092926	0.095673	0.015564	-0.072937	-0.016937	-0.1294	0.33569	-0.003967	0.003052
19.729	0.010529	-0.40482	-0.06485	0.002747	-0.022278	0.004425	0.00885	0.00473	0.028381	-0.020905	-0.028229	0.005493	-0.021057	-0.15503	0.003662	-0.00885	0	-0.31708	0.067749	-0.19623	0.011597	0.072479	0.048828	0.086517	0.068512	0.001526	0.060425	-0.045471	-0.094452	-0.3479	-0.003357	-0.009918
19.73	0.027313	-0.37445	-0.021973	-0.000305	0.05722	0.024414	-0.003204	0.007019	0.032654	-0.015259	-0.0177	0.011902	-0.043488	-0.13229	0.029297	-0.002441	0.026855	-0.28549	0.041809	-0.16754	0.021362	0.066376	-0.020142	0.042877	0.057373	0.007935	0.049744	-0.041809	0	-0.17761	-0.004425	-0.013733
19.731	0.018463	-0.38361	-0.017548	0.00885	0.00946	0.090637	0.008392	-0.007477	0.026245	-0.018921	-0.007324	0.003967	-0.029907	-0.13779	0.028687	0.003967	0.023651	-0.25436	0.22812	-0.088501	0.027618	0.038452	-0.1152	-0.016785	0.046387	0.015259	0.031433	-0.012512	1.0237	-0.13565	-0.002136	-0.002747
19.732	0.018921	-0.39291	0.022888	-0.014343	-0.040741	0.070648	0.00351	-0.010071	0.024109	-0.023651	0.010529	0.007629	0.00061	-0.12253	0.02594	-0.002289	0.02121	-0.22125	0.11826	0.093079	0.014954	0.01297	-0.1088	0.033112	0.054321	0.026093	-0.088043	0.0177	2.0583	-0.24948	-0.001984	-0.00473
19.733	0.024567	-0.40207	-0.019531	0.01236	-0.019836	0.053406	0.017548	0.000458	0.018463	-0.020905	0.013275	0.007477	0.027008	-0.11337	0.015259	0.004425	-0.02182	-0.26627	0.007782	0.22781	0.006104	0.005188	-0.026703	0.10544	0.028687	0.018616	-0.059204	0.012817	0.32105	-0.14343	-0.002289	0.008545
19.734	0.023346	-0.39261	-0.041809	-0.007782	-0.002747	0.007324	0.014038	0.005646	0.020142	-0.02594	0.011444	0.005188	-0.049286	-0.089264	0.026093	0.005798	-0.012207	-0.20783	-0.061951	0.27435	-0.014343	-0.029602	0.006104	0.048218	0.044403	0.005188	0.03479	-0.005951	-0.87738	0.26123	0.000153	-0.000763
19.735	0.024872	-0.39291	-0.009003	-0.005798	0.053864	-0.0177	0.010376	0.006256	0.026703	-0.016479	0.008392	0.007019	-0.064392	-0.087585	0.029602	-0.002441	0.007477	-0.18219	-0.065765	0.18295	-0.014496	-0.044861	0.071564	0.036316	0.023499	0.009308	0.046082	-0.016785	-0.50705	0.14969	-0.002441	-0.009155
19.736	0.023346	-0.37827	0.039368	-0.005951	0.045929	0.023193	0.031281	0.004425	0.030212	-0.02121	0.012817	0.010529	-0.048218	-0.058594	0.011597	-0.003204	0.020142	-0.24246	0.044861	0.029755	-0.013885	-0.10254	0.15045	0.011902	0.23834	0.01236	-0.025177	-0.012817	-1.8846	-0.1236	-0.000458	0.002136
19.737	0.024414	-0.38437	0.046082	0.005341	0.023956	0.047913	0.023346	0.013428	0.017548	-0.014648	0.019989	0.001221	-0.042419	-0.089569	0.014343	-0.007782	0.00412	-0.23529	0.35934	-0.016327	-0.10986	-0.099945	0.17914	0.027161	0.40009	0.023346	-0.043182	-0.00412	-0.24475	-0.32135	-0.003052	-0.001526
19.738	0.01297	-0.3952	0.044403	-0.008392	0.008087	0.045471	0.034943	0.007324	0.014496	-0.003052	0.034485	-0.000305	-0.031281	-0.10315	0.014191	-0.006104	0.006256	-0.25085	0.51498	0.007935	-0.093536	0.0177	0.22079	0.019379	0.39719	0.006714	-0.058441	-0.009003	0.44739	-0.2211	0.005035	0.002899
19.739	0.001984	-0.37842	0.009766	-0.004883	0.011597	0.080261	0.031738	0.002441	0.00946	-0.012817	0.055084	0.005646	-0.027161	-0.13672	0.014954	0.005035	0.008698	-0.19669	0.168	0.039368	-0.053101	0.1091	0.19363	-0.00885	0.35004	-0.001373	0.007935	-0.007172	1.0718	-0.32761	0.001831	0.005951
19.74	-0.004578	-0.3688	0.013885	0.007477	0.03067	0.12665	0.050201	0.010376	-0.005951	-0.002747	0.061951	0.004578	-0.033875	-0.20325	0.053406	-0.001068	0.004883	-0.18845	0.30716	0.047607	-0.023041	0.21378	0.14389	-0.078278	0.23697	-0.018005	0.11444	-0.002747	1.6112	-0.31601	-0.00061	-0.001526
19.741	-0.007324	-0.37674	-0.009003	0.020905	0.041199	0.17654	0.03479	0.008392	0.006561	-0.011292	-0.003815	0.000458	-0.023804	-0.16647	0.014496	0.00351	-0.005646	-0.22003	-0.016022	0.096283	0.061951	0.17975	-0.21622	-0.043182	0.21515	-0.000458	-0.036011	-0.002136	0.60501	-0.3952	-0.002441	0.000153
19.742	-0.012207	-0.37445	-0.018158	0.006256	0.010376	0.16647	0.040588	0.014343	0.009155	-0.007324	-0.021362	0.00412	-0.03952	-0.059509	-0.027466	0.000916	-0.017395	-0.23972	-0.24368	0.09964	0.085602	0.068665	-0.33356	0.1622	0.006256	0.003204	0.083923	-0.057831	-2.7921	-0.29556	-0.003204	-0.004272
19.743	0.012512	-0.36316	-0.010986	0.001373	0.016937	0.096588	0.032196	0.003662	0.000305	-0.011749	-0.004578	-0.002136	-0.055389	-0.007629	-0.028687	-0.003204	0.018768	-0.3244	-0.24445	-0.018311	0.084076	-0.021057	-0.23804	0.1178	-0.24277	-0.005493	0.11551	-0.055084	-1.1159	0.3096	-0.003052	-0.008698
19.744	0.027161	-0.37949	-0.036011	0.006714	-0.047607	0.02182	0.019531	0.006104	-0.001678	-0.009613	-0.015259	0	-0.050964	-0.030823	-0.017853	-0.003357	0.033722	-0.31921	-0.38879	-0.078278	0.10452	-0.091553	-0.18158	0.041351	-0.62302	-0.007477	0.20264	0.047913	-0.42954	0.51193	-0.003052	-0.014038
19.745	0.025482	-0.37338	-0.032349	-0.004425	-0.041809	0.033569	0.039825	0.010071	0.00824	-0.009308	-0.000153	-0.004272	-0.034027	-0.065155	-0.010529	-0.001831	0.020752	-0.26321	-0.53299	-0.11765	0.057068	-0.087128	-0.19806	0.062103	-0.15717	0.015564	0.17349	0.006714	-0.42252	0.19257	-0.00061	-0.008545
19.746	0.038605	-0.35889	-0.053101	0.011292	-0.057526	0.071869	0.042725	0.00412	-0.001068	-0.009766	0.005493	-0.000763	-0.039978	-0.077057	-0.015717	0.001678	0.01709	-0.26245	0.05127	-0.11871	-0.023956	0.066986	-0.11643	0.056	0.066528	0.011139	0.1091	-0.001984	-0.21515	0.20218	-0.008545	-0.003815
19.747	0.033569	-0.36575	-0.069427	0.006409	-0.018311	0.079346	0.030518	0.007172	-0.00061	-0.003357	0.009308	-0.006409	-0.054626	-0.079346	-0.005798	-0.002747	-0.012817	-0.25971	-0.080261	-0.043182	-0.1828	0.15457	-0.012512	0.019379	0.080872	-0.001221	-0.16449	-0.00885	1.3994	0.20477	-0.003052	-0.003967
